<mxfile host="app.diagrams.net" modified="2023-12-20T09:05:28.803Z" agent="Mozilla/5.0 (Macintosh; Intel Mac OS X 10_15_7) AppleWebKit/537.36 (KHTML, like Gecko) Chrome/120.0.0.0 Safari/537.36" version="22.1.11" etag="nM69HL0BhbmK3Beflb6G" type="github">
  <diagram name="第 1 页" id="RWBNZDUDkSs6gYlnoikg">
    <mxGraphModel>
      <root>
        <mxCell id="0" />
        <mxCell id="1" parent="0" />
      </root>
    </mxGraphModel>
  </diagram>
</mxfile>
